HIERARCHY
ROOT Hips
{
  OFFSET -125.889 92.9254 -48.0707
  CHANNELS 6 Xposition Yposition Zposition Zrotation Xrotation Yrotation
  JOINT Spine
  {
    OFFSET -0.000355721 21.3001 -0.016921
    CHANNELS 3 Zrotation Xrotation Yrotation
    JOINT LeftArm
    {
      OFFSET 13.5181 21.3012 0
      CHANNELS 3 Zrotation Xrotation Yrotation
      JOINT LeftForeArm
      {
        OFFSET 24.5783 0 0
        CHANNELS 3 Zrotation Xrotation Yrotation
        JOINT LeftHand
        {
          OFFSET 24.5783 0 0
          CHANNELS 3 Zrotation Xrotation Yrotation
          End Site
          {
            OFFSET 7.32568 1.52588e-05 0.0169305
          }
        }
      }
    }
    JOINT Head
    {
      OFFSET 0 27.4458 -0.00489235
      CHANNELS 3 Zrotation Xrotation Yrotation
      End Site
      {
        OFFSET 0 0 0
      }
    }
    JOINT RightArm
    {
      OFFSET -13.5174 21.3012 0
      CHANNELS 3 Zrotation Xrotation Yrotation
      JOINT RightForeArm
      {
        OFFSET -24.5783 0 0
        CHANNELS 3 Zrotation Xrotation Yrotation
        JOINT RightHand
        {
          OFFSET -24.5783 0 0
          CHANNELS 3 Zrotation Xrotation Yrotation
          End Site
          {
            OFFSET -7.32568 1.52588e-05 0.0169305
          }
        }
      }
    }
  }
  JOINT RightUpLeg
  {
    OFFSET -8.44614 -9.41038 0.835684
    CHANNELS 3 Zrotation Xrotation Yrotation
    JOINT RightLeg
    {
      OFFSET 0 -40.9639 0
      CHANNELS 3 Zrotation Xrotation Yrotation
      JOINT RightFoot
      {
        OFFSET 0 -40.9639 0
        CHANNELS 3 Zrotation Xrotation Yrotation
        End Site
        {
          OFFSET 0.50614 -9.67405 14.6709
        }
      }
    }
  }
  JOINT LeftUpLeg
  {
    OFFSET 8.44614 -9.41038 0.835684
    CHANNELS 3 Zrotation Xrotation Yrotation
    JOINT LeftLeg
    {
      OFFSET 0 -40.9639 0
      CHANNELS 3 Zrotation Xrotation Yrotation
      JOINT LeftFoot
      {
        OFFSET 0 -40.9639 0
        CHANNELS 3 Zrotation Xrotation Yrotation
        End Site
        {
          OFFSET -0.50614 -9.67405 14.6709
        }
      }
    }
  }
}
MOTION
Frames:	20
Frame Time:	0.0333333
-162.032 95.3031 -51.5893 -1.76438 9.87991 18.6369 -8.62868 -10.7773 -0.857376 28.2588 59.1422 -103.364 0.000308689 -9.50852e-05 -22.6211 -30.6428 9.17627 2.65611 12.264 -19.8764 10.6811 47.7928 -16.3133 -23.7558 0.001736 5.34333e-06 8.75887 -12.7117 0.52926 -9.08243 5.9068 -16.8 -28.663 -0.0018634 16.165 0.0286075 13.8709 -28.7866 -35.1676 -0.232749 -1.14204 29.9852 -0.0143415 36.7007 0.0209751 -9.21701 29.6437 2.31335 
-163.544 95.1488 -53.0193 -1.41882 10.0581 20.0638 -8.64138 -10.3656 -0.772245 29.2204 55.9461 -104.062 0.000301775 -9.18991e-05 -26.8568 -31.74 7.41131 1.47917 12.5103 -19.9032 12.2203 45.2759 -17.3486 -23.8173 0.00173598 5.3392e-06 9.042 -9.23867 -0.59648 -8.50232 4.79199 -19.5341 -29.715 -0.000709736 19.7208 0.0201839 15.349 -29.2012 -34.3091 -1.63443 -1.97757 25.534 -0.0013574 35.8316 0.020743 -7.04145 26.7868 2.2589 
-164.918 94.9507 -54.5464 -1.22467 10.2413 20.3916 -8.42876 -10.1067 -0.305775 28.9336 53.3961 -103.203 0.000294466 -8.78171e-05 -31.5142 -32.6013 5.1786 0.32801 12.6389 -20.5278 13.9357 43.1218 -17.5456 -23.212 0.00173595 5.33464e-06 9.34427 -6.01428 -2.48883 -7.76561 2.86798 -23.5985 -30.3711 0.00199062 26.5357 -0.00038428 19.1187 -28.922 -31.7239 -3.26955 -2.53003 23.2465 0.000159705 35.8882 0.0139436 -3.76114 18.7984 4.60021 
-166.02 94.9168 -55.9846 -0.479953 11.1267 19.5651 -8.61429 -10.5187 0.0854782 27.493 51.8633 -101.34 0.000287639 -8.3247e-05 -36.0849 -32.68 2.07562 -1.5479 12.957 -20.7739 16.0069 41.1558 -17.7305 -21.4643 0.00173595 5.33527e-06 9.30315 -3.59504 -4.72242 -6.91274 -1.32395 -29.5405 -31.9779 0.0027245 36.4503 -0.0338266 25.6561 -26.1831 -27.7619 -6.44562 -2.49564 23.07 -6.71431e-05 33.6496 0.000726445 0.568386 11.3995 10.231 
-166.96 95.0276 -57.0141 -0.486474 10.4728 19.3065 -8.63109 -10.3572 0.0460449 27.6316 51.8678 -100.462 0.000281273 -7.82117e-05 -40.6006 -32.3451 -1.51628 -4.26898 14.0032 -20.143 17.3077 40.2222 -18.3622 -20.5114 0.0017359 5.32634e-06 9.87145 -1.99754 -6.42268 -6.32781 -4.953 -32.9957 -34.74 0.00101624 44.4946 -0.0751214 29.5528 -19.2692 -23.4959 -8.12578 -0.430148 23.4764 -2.67953e-05 30.0521 -0.00915532 3.72733 6.70142 15.4257 
-167.789 95.1715 -57.7359 -0.931226 10.1249 19.5979 -8.79382 -10.3722 -0.132175 30.6097 51.2214 -102.292 0.000275787 -7.31535e-05 -44.7521 -32.9974 -3.78571 -5.81883 15.0591 -19.9453 17.6907 39.8395 -19.6867 -19.7177 0.00173588 5.32272e-06 10.093 -0.909151 -7.71092 -5.41876 -8.11471 -35.1445 -37.1762 0.000347515 48.5808 -0.0881858 26.4234 -11.0306 -17.8387 -9.11196 0.645413 21.262 -0.00240309 27.1301 -0.00883561 4.56038 4.30457 20.1517 
-168.584 95.4834 -58.0042 -2.05476 10.0611 19.9238 -9.21027 -10.5345 -0.252435 35.5363 49.7396 -105.609 0.000271315 -6.84301e-05 -48.3709 -33.8485 -5.5086 -7.51426 16.8583 -19.9683 17.6764 40.8558 -20.8882 -18.8066 0.00173587 5.3204e-06 10.2325 -0.476714 -8.68201 -4.54704 -8.75 -36.1206 -36.9629 -0.000628162 47.9727 -0.0919568 27.5334 -10.0482 -14.0331 -8.55551 0.768098 18.7149 -0.00370393 25.4277 -0.00875601 4.70259 3.30363 22.8472 
-169.29 95.8924 -57.9042 -2.91855 10.1715 19.6053 -9.48823 -10.6694 -0.267954 38.9872 48.8788 -107.933 0.00026729 -6.36133e-05 -51.8629 -35.3363 -6.7339 -8.36525 18.3875 -19.871 17.9783 42.208 -22.4449 -17.6299 0.00173584 5.3158e-06 10.503 -0.258779 -8.71884 -3.97076 -7.9127 -36.1037 -34.2811 0.000375819 44.6345 -0.0881544 31.8936 -15.3126 -16.0711 -7.6843 0.534679 16.4122 -0.00407591 24.4969 -0.00902426 3.9936 3.76405 24.0716 
-169.861 96.286 -57.5417 -3.19408 10.4579 18.6358 -9.60079 -10.8135 -0.211473 40.9257 48.799 -109.339 0.000263228 -5.80685e-05 -55.6867 -37.8942 -9.9749 -10.8422 19.1261 -19.895 18.6498 43.535 -23.2578 -16.2111 0.00173583 5.31345e-06 10.6389 0.841034 -10.1875 -3.3346 -6.89426 -35.1956 -30.6394 -0.000112608 39.5842 -0.0768954 34.9902 -19.235 -18.0518 -7.36386 0.178889 14.9857 -0.00377763 23.9842 -0.00942137 3.14516 5.07273 25.2024 
-170.28 96.5219 -57.0168 -3.01207 10.6267 17.3988 -9.63346 -10.7459 -0.189094 42.7239 48.4167 -111.015 0.000259473 -5.21426e-05 -59.5896 -42.0119 -14.8942 -16.7591 19.4118 -20.0037 19.581 44.5989 -22.8964 -14.9398 0.00173585 5.31656e-06 10.4586 3.6452 -11.6263 -2.95102 -6.07782 -33.713 -27.2966 0.000771616 34.1377 -0.0593472 35.1986 -20.5122 -19.4085 -7.62572 0.403906 15.2564 -0.00313096 23.129 -0.0097081 4.08402 6.48928 26.4008 
-170.524 96.5457 -56.2923 -2.79661 10.7938 16.2041 -9.62113 -10.6287 -0.319459 44.4326 47.5244 -113.02 0.000256689 -4.70796e-05 -62.8038 -47.5554 -21.1503 -27.1345 19.6397 -20.1975 20.5198 44.9267 -22.3529 -13.8329 0.00173593 5.33198e-06 9.51635 7.87976 -12.9741 -2.90604 -5.46627 -32.4355 -23.9608 -0.000468598 29.6893 -0.0445951 34.9494 -20.737 -19.7088 -7.98138 1.04079 16.7669 -0.00230548 21.989 -0.00971 5.64944 7.42614 27.0491 
-170.586 96.3586 -55.4171 -2.80658 11.2156 15.0569 -9.61154 -10.6103 -0.653311 45.4139 46.1122 -114.44 0.000254473 -4.2492e-05 -65.6377 -53.6301 -27.0486 -39.5171 20.0752 -20.5132 21.4969 44.453 -23.5164 -13.0325 0.00173603 5.34696e-06 8.50306 9.9621 -13.1405 -3.79834 -5.04032 -31.8636 -20.3396 1.11349e-06 26.5552 -0.0343447 32.1136 -18.3359 -19.7673 -8.38004 1.41255 17.9332 -0.00136684 21.0931 -0.00929 7.26103 7.80482 27.9534 
-170.589 96.0011 -54.3214 -3.07249 11.7595 13.9597 -9.74341 -10.4844 -1.02979 45.248 44.0053 -114.548 0.000252546 -3.79506e-05 -68.382 -57.6123 -29.6325 -47.2748 21.1045 -21.3279 22.597 43.2916 -26.2681 -13.027 0.00173609 5.35608e-06 7.82193 9.33713 -13.8545 -3.54518 -4.34444 -31.7398 -16.8809 -0.000706392 24.5146 -0.031838 31.8671 -17.7692 -19.7643 -8.44216 1.58027 18.209 -0.000482874 20.3862 -0.00826946 6.22958 6.62492 33.3655 
-170.548 95.4447 -52.987 -3.61839 12.4779 12.7956 -9.82761 -10.2493 -1.30599 44.7847 40.9309 -113.755 0.000251069 -3.39865e-05 -70.7352 -59.9546 -32.1242 -54.3328 22.6954 -22.8654 24.0102 41.5111 -29.7251 -13.7705 0.00173611 5.35872e-06 7.6138 8.07158 -14.8855 -2.80212 -3.26296 -31.9759 -15.2071 0.0022282 22.8152 -0.0567092 35.0173 -14.6486 -16.4922 -8.24286 1.21913 17.5273 0.000326451 21.0258 -0.00652184 6.47677 5.63465 35.1429 
-170.526 94.78 -51.3325 -4.51331 12.9786 11.6343 -9.85275 -10.1161 -1.46142 43.8086 38.2817 -111.897 0.000249945 -3.05808e-05 -72.7302 -62.4686 -33.448 -59.6762 24.7866 -24.6643 25.2314 39.4849 -31.6942 -15.0965 0.00173611 5.35912e-06 7.58183 6.70413 -15.23 -1.95174 -1.35996 -31.2492 -16.1704 0.0135856 20.2348 -0.0506968 33.3335 -13.817 -17.9949 -7.21047 0.776767 17.5021 0.000116308 22.7258 -0.00230059 5.76383 4.12223 36.2575 
-170.441 94.1406 -49.6194 -5.89862 13.6591 11.1333 -9.37797 -9.57115 -1.6517 41.8012 35.5937 -108.647 0.000249325 -2.85121e-05 -73.9313 -65.0497 -33.9663 -64.2677 26.547 -27.1849 26.4262 37.3743 -33.1163 -16.4804 0.0017361 5.35749e-06 7.7118 3.99298 -14.7312 -1.38015 1.10126 -30.5934 -16.7153 0.00209846 18.8428 -0.0501037 28.0035 -13.8062 -16.3309 -5.3178 -0.777658 18.2151 3.9843e-05 26.0942 0.00047182 5.73267 2.80809 37.0053 
-170.379 93.9618 -48.2716 -8.13668 14.8912 10.4537 -8.73252 -9.35946 -1.54605 39.996 34.0186 -104.751 0.000249377 -2.86908e-05 -73.8278 -67.7678 -35.0084 -68.9911 28.5476 -29.7227 27.8018 36.911 -33.2692 -17.1914 0.00173606 5.35206e-06 8.12914 0.555366 -14.1845 -1.27336 5.27666 -31.8395 -9.46578 0.000381614 19.0377 -0.0521099 23.3539 -14.72 -21.4736 -2.27625 -4.02383 20.5289 -0.000454932 30.44 0.00395583 5.78685 2.61076 37.8116 
-170.193 94.1006 -47.085 -9.24288 15.3345 10.1473 -8.33547 -8.79491 -1.60907 37.1418 33.9022 -101.576 0.000251255 -3.45156e-05 -70.4231 -76.3846 -31.1633 -76.5512 29.7575 -31.1021 28.6557 36.5098 -32.0884 -18.3161 0.00138985 5.33535e-06 9.29791 -1.88025 -13.8039 -1.2413 8.12916 -31.0897 -1.50815 -0.000117758 17.8338 -0.0539631 21.6129 -17.3164 -26.687 -0.610465 -5.98984 21.0669 -0.0260369 34.0636 0.0110339 3.11346 2.72235 37.4232 
-169.814 94.3644 -45.9412 -9.51249 15.9166 10.6698 -8.07377 -8.31182 -1.84923 34.8954 33.6525 -99.9547 0.000253551 -4.03951e-05 -66.9118 -80.7468 -28.817 -80.0453 29.921 -31.926 28.6107 35.7992 -31.1537 -19.9815 0.0171674 5.31589e-06 10.4977 -3.07535 -15.1098 -0.441484 9.01537 -29.9485 4.76498 -0.000330382 16.2624 -0.0553887 22.4056 -22.2471 -29.944 -0.199152 -7.30178 20.3162 1.26412e-06 35.0209 0.0160449 -4.2619 2.49644 28.5556 
-169.178 94.5063 -44.8649 -9.23537 17.1958 10.4111 -7.55147 -8.1168 -1.70569 31.8055 33.6396 -97.9668 0.000255134 -4.39225e-05 -64.7613 -81.9193 -28.2163 -79.6789 29.1788 -32.6928 28.9068 34.9105 -31.9992 -21.1926 0.0153029 5.29638e-06 11.5776 -4.14385 -16.9999 0.568473 8.23692 -30.5057 4.74253 -3.91667e-05 16.7331 -0.0579755 24.2836 -24.9704 -27.6388 -0.916593 -8.09148 20.7082 -0.00797218 32.6575 0.0221422 -10.3942 7.12589 21.4508 
